<svg width="33" height="32" viewBox="0 0 33 32" fill="none" xmlns="http://www.w3.org/2000/svg">
<path d="M16.5022 29.2721C12.8792 29.2721 9.40468 27.8329 6.84287 25.2711C4.28106 22.7093 2.84186 19.2347 2.84186 15.6118C2.84186 11.9889 4.28106 8.5143 6.84287 5.95249C9.40468 3.39068 12.8792 1.95147 16.5022 1.95147C20.1251 1.95147 23.5997 3.39068 26.1615 5.95249C28.7233 8.5143 30.1625 11.9889 30.1625 15.6118C30.1625 19.2347 28.7233 22.7093 26.1615 25.2711C23.5997 27.8329 20.1251 29.2721 16.5022 29.2721ZM16.5022 31.2236C20.6427 31.2236 24.6136 29.5788 27.5414 26.651C30.4692 23.7232 32.114 19.7523 32.114 15.6118C32.114 11.4713 30.4692 7.50037 27.5414 4.57259C24.6136 1.64481 20.6427 0 16.5022 0C12.3617 0 8.39075 1.64481 5.46297 4.57259C2.53519 7.50037 0.890381 11.4713 0.890381 15.6118C0.890381 19.7523 2.53519 23.7232 5.46297 26.651C8.39075 29.5788 12.3617 31.2236 16.5022 31.2236V31.2236Z" fill="white"/>
<path d="M16.5 7.80664C16.7588 7.80664 17.007 7.90944 17.1899 8.09243C17.3729 8.27541 17.4757 8.5236 17.4757 8.78238V14.6368H23.3302C23.5889 14.6368 23.8371 14.7396 24.0201 14.9226C24.2031 15.1056 24.3059 15.3538 24.3059 15.6125C24.3059 15.8713 24.2031 16.1195 24.0201 16.3025C23.8371 16.4855 23.5889 16.5883 23.3302 16.5883H17.4757V22.4427C17.4757 22.7015 17.3729 22.9497 17.1899 23.1327C17.007 23.3156 16.7588 23.4184 16.5 23.4184C16.2412 23.4184 15.993 23.3156 15.81 23.1327C15.6271 22.9497 15.5243 22.7015 15.5243 22.4427V16.5883H9.66983C9.41105 16.5883 9.16287 16.4855 8.97988 16.3025C8.79689 16.1195 8.69409 15.8713 8.69409 15.6125C8.69409 15.3538 8.79689 15.1056 8.97988 14.9226C9.16287 14.7396 9.41105 14.6368 9.66983 14.6368H15.5243V8.78238C15.5243 8.5236 15.6271 8.27541 15.81 8.09243C15.993 7.90944 16.2412 7.80664 16.5 7.80664V7.80664Z" fill="white"/>
</svg>
