<svg width="38" height="34" viewBox="0 0 38 34" fill="none" xmlns="http://www.w3.org/2000/svg">
<path fill-rule="evenodd" clip-rule="evenodd" d="M19.0007 2.48927C18.9476 2.48866 18.8953 2.50175 18.8487 2.52727C18.7945 2.55992 18.7502 2.60671 18.7205 2.66262L13.7066 11.1949L16.3824 8.91664C16.5951 8.73559 16.8738 8.65171 17.151 8.68532C17.4283 8.71893 17.6789 8.86696 17.8421 9.09358L22.4355 15.4704L24.8812 12.1954L19.2785 2.66262C19.2489 2.60664 19.2046 2.55983 19.1503 2.52727C19.1044 2.50214 19.053 2.48907 19.0007 2.48927ZM25.9805 14.0658L23.2222 17.7595C23.0316 18.0147 22.7309 18.1638 22.4124 18.1611C22.0939 18.1583 21.7957 18.004 21.6095 17.7456L16.8532 11.1425L11.3724 15.8089C11.2215 15.9374 11.0433 16.0133 10.8604 16.0383L2.44036 30.3669C2.3998 30.4319 2.3779 30.5068 2.37707 30.5835C2.37623 30.6601 2.39648 30.7355 2.43561 30.8014C2.46573 30.8589 2.50983 30.9079 2.56384 30.9439C2.6108 30.9729 2.66544 30.9869 2.72056 30.9842H35.2808C35.3359 30.9868 35.3905 30.9727 35.4375 30.9439C35.4916 30.9079 35.5356 30.8589 35.5658 30.8014C35.6441 30.6613 35.6465 30.5093 35.561 30.3669L25.9805 14.0658ZM20.3452 0.472476C20.7538 0.709049 21.0927 1.04924 21.3278 1.4587L37.6079 29.1629C38.6955 31.008 37.3918 33.3588 35.2808 33.3588H2.71819C0.607186 33.3588 -0.694084 31.0104 0.3911 29.1629L16.6736 1.4587C16.9087 1.04924 17.2476 0.709049 17.6562 0.472476C18.0648 0.235904 18.5286 0.111328 19.0007 0.111328C19.4728 0.111328 19.9366 0.235904 20.3452 0.472476Z" fill="#0060AD"/>
</svg>
