<svg width="972" height="135" viewBox="0 0 972 135" fill="none" xmlns="http://www.w3.org/2000/svg">
<path d="M482.25 47.368C482.25 48.1049 481.954 48.8115 481.426 49.3325C480.899 49.8535 480.183 50.1462 479.437 50.1462C478.692 50.1462 477.976 49.8535 477.449 49.3325C476.921 48.8115 476.625 48.1049 476.625 47.368C476.625 46.6312 476.921 45.9246 477.449 45.4036C477.976 44.8825 478.692 44.5898 479.437 44.5898C480.183 44.5898 480.899 44.8825 481.426 45.4036C481.954 45.9246 482.25 46.6312 482.25 47.368V47.368Z" fill="#AEB2B8"/>
<path d="M474.75 39.0352C473.755 39.0352 472.802 39.4254 472.098 40.1201C471.395 40.8148 471 41.757 471 42.7394V61.2608C471 62.2432 471.395 63.1854 472.098 63.8801C472.802 64.5748 473.755 64.965 474.75 64.965H497.25C498.245 64.965 499.198 64.5748 499.902 63.8801C500.605 63.1854 501 62.2432 501 61.2608V42.7394C501 41.757 500.605 40.8148 499.902 40.1201C499.198 39.4254 498.245 39.0352 497.25 39.0352H474.75V39.0352ZM497.25 40.8873C497.747 40.8873 498.224 41.0824 498.576 41.4298C498.927 41.7771 499.125 42.2482 499.125 42.7394V54.7783L492.043 51.1722C491.867 51.0852 491.668 51.055 491.474 51.0859C491.28 51.1168 491.101 51.2073 490.961 51.3444L484.005 58.2159L479.018 54.9339C478.837 54.8154 478.621 54.7622 478.406 54.7831C478.191 54.804 477.989 54.8979 477.836 55.0487L472.875 59.4086V42.7394C472.875 42.2482 473.073 41.7771 473.424 41.4298C473.776 41.0824 474.253 40.8873 474.75 40.8873H497.25Z" fill="#AEB2B8"/>
<path d="M344.34 90.572H348.672V91.604H344.34V90.572ZM344.46 95H343.26V86.6H349.188V87.644H344.46V95ZM353.054 95.072C352.414 95.072 351.846 94.932 351.35 94.652C350.854 94.372 350.462 93.988 350.174 93.5C349.886 93.004 349.742 92.444 349.742 91.82C349.742 91.188 349.886 90.628 350.174 90.14C350.462 89.652 350.854 89.272 351.35 89C351.846 88.72 352.414 88.58 353.054 88.58C353.686 88.58 354.25 88.72 354.746 89C355.25 89.272 355.642 89.652 355.922 90.14C356.21 90.62 356.354 91.18 356.354 91.82C356.354 92.452 356.21 93.012 355.922 93.5C355.642 93.988 355.25 94.372 354.746 94.652C354.25 94.932 353.686 95.072 353.054 95.072ZM353.054 94.064C353.462 94.064 353.826 93.972 354.146 93.788C354.474 93.604 354.73 93.344 354.914 93.008C355.098 92.664 355.19 92.268 355.19 91.82C355.19 91.364 355.098 90.972 354.914 90.644C354.73 90.308 354.474 90.048 354.146 89.864C353.826 89.68 353.462 89.588 353.054 89.588C352.646 89.588 352.282 89.68 351.962 89.864C351.642 90.048 351.386 90.308 351.194 90.644C351.002 90.972 350.906 91.364 350.906 91.82C350.906 92.268 351.002 92.664 351.194 93.008C351.386 93.344 351.642 93.604 351.962 93.788C352.282 93.972 352.646 94.064 353.054 94.064ZM357.767 95V88.64H358.871V90.368L358.763 89.936C358.939 89.496 359.235 89.16 359.651 88.928C360.067 88.696 360.579 88.58 361.187 88.58V89.696C361.139 89.688 361.091 89.684 361.043 89.684C361.003 89.684 360.963 89.684 360.923 89.684C360.307 89.684 359.819 89.868 359.459 90.236C359.099 90.604 358.919 91.136 358.919 91.832V95H357.767ZM370.383 88.58C370.895 88.58 371.347 88.68 371.739 88.88C372.131 89.08 372.435 89.384 372.651 89.792C372.875 90.2 372.987 90.716 372.987 91.34V95H371.835V91.472C371.835 90.856 371.691 90.392 371.403 90.08C371.115 89.768 370.711 89.612 370.191 89.612C369.807 89.612 369.471 89.692 369.183 89.852C368.895 90.012 368.671 90.248 368.511 90.56C368.359 90.872 368.283 91.26 368.283 91.724V95H367.131V91.472C367.131 90.856 366.987 90.392 366.699 90.08C366.419 89.768 366.015 89.612 365.487 89.612C365.111 89.612 364.779 89.692 364.491 89.852C364.203 90.012 363.979 90.248 363.819 90.56C363.659 90.872 363.579 91.26 363.579 91.724V95H362.427V88.64H363.531V90.332L363.351 89.9C363.551 89.484 363.859 89.16 364.275 88.928C364.691 88.696 365.175 88.58 365.727 88.58C366.335 88.58 366.859 88.732 367.299 89.036C367.739 89.332 368.027 89.784 368.163 90.392L367.695 90.2C367.887 89.712 368.223 89.32 368.703 89.024C369.183 88.728 369.743 88.58 370.383 88.58ZM378.875 95V93.656L378.815 93.404V91.112C378.815 90.624 378.671 90.248 378.383 89.984C378.103 89.712 377.679 89.576 377.111 89.576C376.735 89.576 376.367 89.64 376.007 89.768C375.647 89.888 375.343 90.052 375.095 90.26L374.615 89.396C374.943 89.132 375.335 88.932 375.791 88.796C376.255 88.652 376.739 88.58 377.243 88.58C378.115 88.58 378.787 88.792 379.259 89.216C379.731 89.64 379.967 90.288 379.967 91.16V95H378.875ZM376.787 95.072C376.315 95.072 375.899 94.992 375.539 94.832C375.187 94.672 374.915 94.452 374.723 94.172C374.531 93.884 374.435 93.56 374.435 93.2C374.435 92.856 374.515 92.544 374.675 92.264C374.843 91.984 375.111 91.76 375.479 91.592C375.855 91.424 376.359 91.34 376.991 91.34H379.007V92.168H377.039C376.463 92.168 376.075 92.264 375.875 92.456C375.675 92.648 375.575 92.88 375.575 93.152C375.575 93.464 375.699 93.716 375.947 93.908C376.195 94.092 376.539 94.184 376.979 94.184C377.411 94.184 377.787 94.088 378.107 93.896C378.435 93.704 378.671 93.424 378.815 93.056L379.043 93.848C378.891 94.224 378.623 94.524 378.239 94.748C377.855 94.964 377.371 95.072 376.787 95.072ZM384.103 95.072C383.463 95.072 382.967 94.9 382.615 94.556C382.263 94.212 382.087 93.72 382.087 93.08V87.248H383.239V93.032C383.239 93.376 383.323 93.64 383.491 93.824C383.667 94.008 383.915 94.1 384.235 94.1C384.595 94.1 384.895 94 385.135 93.8L385.495 94.628C385.319 94.78 385.107 94.892 384.859 94.964C384.619 95.036 384.367 95.072 384.103 95.072ZM381.007 89.588V88.64H385.063V89.588H381.007ZM388.531 95.072C388.003 95.072 387.499 95 387.019 94.856C386.547 94.712 386.175 94.536 385.903 94.328L386.383 93.416C386.655 93.6 386.991 93.756 387.391 93.884C387.791 94.012 388.199 94.076 388.615 94.076C389.151 94.076 389.535 94 389.767 93.848C390.007 93.696 390.127 93.484 390.127 93.212C390.127 93.012 390.055 92.856 389.911 92.744C389.767 92.632 389.575 92.548 389.335 92.492C389.103 92.436 388.843 92.388 388.555 92.348C388.267 92.3 387.979 92.244 387.691 92.18C387.403 92.108 387.139 92.012 386.899 91.892C386.659 91.764 386.467 91.592 386.323 91.376C386.179 91.152 386.107 90.856 386.107 90.488C386.107 90.104 386.215 89.768 386.431 89.48C386.647 89.192 386.951 88.972 387.343 88.82C387.743 88.66 388.215 88.58 388.759 88.58C389.175 88.58 389.595 88.632 390.019 88.736C390.451 88.832 390.803 88.972 391.075 89.156L390.583 90.068C390.295 89.876 389.995 89.744 389.683 89.672C389.371 89.6 389.059 89.564 388.747 89.564C388.243 89.564 387.867 89.648 387.619 89.816C387.371 89.976 387.247 90.184 387.247 90.44C387.247 90.656 387.319 90.824 387.463 90.944C387.615 91.056 387.807 91.144 388.039 91.208C388.279 91.272 388.543 91.328 388.831 91.376C389.119 91.416 389.407 91.472 389.695 91.544C389.983 91.608 390.243 91.7 390.475 91.82C390.715 91.94 390.907 92.108 391.051 92.324C391.203 92.54 391.279 92.828 391.279 93.188C391.279 93.572 391.167 93.904 390.943 94.184C390.719 94.464 390.403 94.684 389.995 94.844C389.587 94.996 389.099 95.072 388.531 95.072ZM399.53 95V93.656L399.47 93.404V91.112C399.47 90.624 399.326 90.248 399.038 89.984C398.758 89.712 398.334 89.576 397.766 89.576C397.39 89.576 397.022 89.64 396.662 89.768C396.302 89.888 395.998 90.052 395.75 90.26L395.27 89.396C395.598 89.132 395.99 88.932 396.446 88.796C396.91 88.652 397.394 88.58 397.898 88.58C398.77 88.58 399.442 88.792 399.914 89.216C400.386 89.64 400.622 90.288 400.622 91.16V95H399.53ZM397.442 95.072C396.97 95.072 396.554 94.992 396.194 94.832C395.842 94.672 395.57 94.452 395.378 94.172C395.186 93.884 395.09 93.56 395.09 93.2C395.09 92.856 395.17 92.544 395.33 92.264C395.498 91.984 395.766 91.76 396.134 91.592C396.51 91.424 397.014 91.34 397.646 91.34H399.662V92.168H397.694C397.118 92.168 396.73 92.264 396.53 92.456C396.33 92.648 396.23 92.88 396.23 93.152C396.23 93.464 396.354 93.716 396.602 93.908C396.85 94.092 397.194 94.184 397.634 94.184C398.066 94.184 398.442 94.088 398.762 93.896C399.09 93.704 399.326 93.424 399.47 93.056L399.698 93.848C399.546 94.224 399.278 94.524 398.894 94.748C398.51 94.964 398.026 95.072 397.442 95.072ZM405.346 95.072C404.698 95.072 404.118 94.932 403.606 94.652C403.102 94.372 402.706 93.988 402.418 93.5C402.13 93.012 401.986 92.452 401.986 91.82C401.986 91.188 402.13 90.628 402.418 90.14C402.706 89.652 403.102 89.272 403.606 89C404.118 88.72 404.698 88.58 405.346 88.58C405.922 88.58 406.434 88.696 406.882 88.928C407.338 89.152 407.69 89.488 407.938 89.936L407.062 90.5C406.854 90.188 406.598 89.96 406.294 89.816C405.998 89.664 405.678 89.588 405.334 89.588C404.918 89.588 404.546 89.68 404.218 89.864C403.89 90.048 403.63 90.308 403.438 90.644C403.246 90.972 403.15 91.364 403.15 91.82C403.15 92.276 403.246 92.672 403.438 93.008C403.63 93.344 403.89 93.604 404.218 93.788C404.546 93.972 404.918 94.064 405.334 94.064C405.678 94.064 405.998 93.992 406.294 93.848C406.598 93.696 406.854 93.464 407.062 93.152L407.938 93.704C407.69 94.144 407.338 94.484 406.882 94.724C406.434 94.956 405.922 95.072 405.346 95.072ZM411.927 95.072C411.279 95.072 410.699 94.932 410.187 94.652C409.683 94.372 409.287 93.988 408.999 93.5C408.711 93.012 408.567 92.452 408.567 91.82C408.567 91.188 408.711 90.628 408.999 90.14C409.287 89.652 409.683 89.272 410.187 89C410.699 88.72 411.279 88.58 411.927 88.58C412.503 88.58 413.015 88.696 413.463 88.928C413.919 89.152 414.271 89.488 414.519 89.936L413.643 90.5C413.435 90.188 413.179 89.96 412.875 89.816C412.579 89.664 412.259 89.588 411.915 89.588C411.499 89.588 411.127 89.68 410.799 89.864C410.471 90.048 410.211 90.308 410.019 90.644C409.827 90.972 409.731 91.364 409.731 91.82C409.731 92.276 409.827 92.672 410.019 93.008C410.211 93.344 410.471 93.604 410.799 93.788C411.127 93.972 411.499 94.064 411.915 94.064C412.259 94.064 412.579 93.992 412.875 93.848C413.179 93.696 413.435 93.464 413.643 93.152L414.519 93.704C414.271 94.144 413.919 94.484 413.463 94.724C413.015 94.956 412.503 95.072 411.927 95.072ZM418.569 95.072C417.889 95.072 417.289 94.932 416.769 94.652C416.257 94.372 415.857 93.988 415.569 93.5C415.289 93.012 415.149 92.452 415.149 91.82C415.149 91.188 415.285 90.628 415.557 90.14C415.837 89.652 416.217 89.272 416.697 89C417.185 88.72 417.733 88.58 418.341 88.58C418.957 88.58 419.501 88.716 419.973 88.988C420.445 89.26 420.813 89.644 421.077 90.14C421.349 90.628 421.485 91.2 421.485 91.856C421.485 91.904 421.481 91.96 421.473 92.024C421.473 92.088 421.469 92.148 421.461 92.204H416.049V91.376H420.861L420.393 91.664C420.401 91.256 420.317 90.892 420.141 90.572C419.965 90.252 419.721 90.004 419.409 89.828C419.105 89.644 418.749 89.552 418.341 89.552C417.941 89.552 417.585 89.644 417.273 89.828C416.961 90.004 416.717 90.256 416.541 90.584C416.365 90.904 416.277 91.272 416.277 91.688V91.88C416.277 92.304 416.373 92.684 416.565 93.02C416.765 93.348 417.041 93.604 417.393 93.788C417.745 93.972 418.149 94.064 418.605 94.064C418.981 94.064 419.321 94 419.625 93.872C419.937 93.744 420.209 93.552 420.441 93.296L421.077 94.04C420.789 94.376 420.429 94.632 419.997 94.808C419.573 94.984 419.097 95.072 418.569 95.072ZM426.277 95.072C425.749 95.072 425.265 94.952 424.825 94.712C424.393 94.464 424.045 94.1 423.781 93.62C423.525 93.14 423.397 92.54 423.397 91.82C423.397 91.1 423.521 90.5 423.769 90.02C424.025 89.54 424.369 89.18 424.801 88.94C425.241 88.7 425.733 88.58 426.277 88.58C426.901 88.58 427.453 88.716 427.933 88.988C428.413 89.26 428.793 89.64 429.073 90.128C429.353 90.608 429.493 91.172 429.493 91.82C429.493 92.468 429.353 93.036 429.073 93.524C428.793 94.012 428.413 94.392 427.933 94.664C427.453 94.936 426.901 95.072 426.277 95.072ZM422.905 97.328V88.64H424.009V90.356L423.937 91.832L424.057 93.308V97.328H422.905ZM426.181 94.064C426.589 94.064 426.953 93.972 427.273 93.788C427.601 93.604 427.857 93.344 428.041 93.008C428.233 92.664 428.329 92.268 428.329 91.82C428.329 91.364 428.233 90.972 428.041 90.644C427.857 90.308 427.601 90.048 427.273 89.864C426.953 89.68 426.589 89.588 426.181 89.588C425.781 89.588 425.417 89.68 425.089 89.864C424.769 90.048 424.513 90.308 424.321 90.644C424.137 90.972 424.045 91.364 424.045 91.82C424.045 92.268 424.137 92.664 424.321 93.008C424.513 93.344 424.769 93.604 425.089 93.788C425.417 93.972 425.781 94.064 426.181 94.064ZM433.088 95.072C432.448 95.072 431.952 94.9 431.6 94.556C431.248 94.212 431.072 93.72 431.072 93.08V87.248H432.224V93.032C432.224 93.376 432.308 93.64 432.476 93.824C432.652 94.008 432.9 94.1 433.22 94.1C433.58 94.1 433.88 94 434.12 93.8L434.48 94.628C434.304 94.78 434.092 94.892 433.844 94.964C433.604 95.036 433.352 95.072 433.088 95.072ZM429.992 89.588V88.64H434.048V89.588H429.992ZM438.314 95.072C437.634 95.072 437.034 94.932 436.514 94.652C436.002 94.372 435.602 93.988 435.314 93.5C435.034 93.012 434.894 92.452 434.894 91.82C434.894 91.188 435.03 90.628 435.302 90.14C435.582 89.652 435.962 89.272 436.442 89C436.93 88.72 437.478 88.58 438.086 88.58C438.702 88.58 439.246 88.716 439.718 88.988C440.19 89.26 440.558 89.644 440.822 90.14C441.094 90.628 441.23 91.2 441.23 91.856C441.23 91.904 441.226 91.96 441.218 92.024C441.218 92.088 441.214 92.148 441.206 92.204H435.794V91.376H440.606L440.138 91.664C440.146 91.256 440.062 90.892 439.886 90.572C439.71 90.252 439.466 90.004 439.154 89.828C438.85 89.644 438.494 89.552 438.086 89.552C437.686 89.552 437.33 89.644 437.018 89.828C436.706 90.004 436.462 90.256 436.286 90.584C436.11 90.904 436.022 91.272 436.022 91.688V91.88C436.022 92.304 436.118 92.684 436.31 93.02C436.51 93.348 436.786 93.604 437.138 93.788C437.49 93.972 437.894 94.064 438.35 94.064C438.726 94.064 439.066 94 439.37 93.872C439.682 93.744 439.954 93.552 440.186 93.296L440.822 94.04C440.534 94.376 440.174 94.632 439.742 94.808C439.318 94.984 438.842 95.072 438.314 95.072ZM437.174 87.716L438.806 86.156H440.27L438.254 87.716H437.174ZM444.474 95.072C443.946 95.072 443.442 95 442.962 94.856C442.49 94.712 442.118 94.536 441.846 94.328L442.326 93.416C442.598 93.6 442.934 93.756 443.334 93.884C443.734 94.012 444.142 94.076 444.558 94.076C445.094 94.076 445.478 94 445.71 93.848C445.95 93.696 446.07 93.484 446.07 93.212C446.07 93.012 445.998 92.856 445.854 92.744C445.71 92.632 445.518 92.548 445.278 92.492C445.046 92.436 444.786 92.388 444.498 92.348C444.21 92.3 443.922 92.244 443.634 92.18C443.346 92.108 443.082 92.012 442.842 91.892C442.602 91.764 442.41 91.592 442.266 91.376C442.122 91.152 442.05 90.856 442.05 90.488C442.05 90.104 442.158 89.768 442.374 89.48C442.59 89.192 442.894 88.972 443.286 88.82C443.686 88.66 444.158 88.58 444.702 88.58C445.118 88.58 445.538 88.632 445.962 88.736C446.394 88.832 446.746 88.972 447.018 89.156L446.526 90.068C446.238 89.876 445.938 89.744 445.626 89.672C445.314 89.6 445.002 89.564 444.69 89.564C444.186 89.564 443.81 89.648 443.562 89.816C443.314 89.976 443.19 90.184 443.19 90.44C443.19 90.656 443.262 90.824 443.406 90.944C443.558 91.056 443.75 91.144 443.982 91.208C444.222 91.272 444.486 91.328 444.774 91.376C445.062 91.416 445.35 91.472 445.638 91.544C445.926 91.608 446.186 91.7 446.418 91.82C446.658 91.94 446.85 92.108 446.994 92.324C447.146 92.54 447.222 92.828 447.222 93.188C447.222 93.572 447.11 93.904 446.886 94.184C446.662 94.464 446.346 94.684 445.938 94.844C445.53 94.996 445.042 95.072 444.474 95.072ZM451.8 90.224C451.576 90.224 451.384 90.148 451.224 89.996C451.064 89.836 450.984 89.636 450.984 89.396C450.984 89.156 451.064 88.96 451.224 88.808C451.384 88.656 451.576 88.58 451.8 88.58C452.016 88.58 452.2 88.656 452.352 88.808C452.512 88.96 452.592 89.156 452.592 89.396C452.592 89.636 452.512 89.836 452.352 89.996C452.2 90.148 452.016 90.224 451.8 90.224ZM451.8 95.072C451.576 95.072 451.384 94.996 451.224 94.844C451.064 94.684 450.984 94.484 450.984 94.244C450.984 94.004 451.064 93.808 451.224 93.656C451.384 93.504 451.576 93.428 451.8 93.428C452.016 93.428 452.2 93.504 452.352 93.656C452.512 93.808 452.592 94.004 452.592 94.244C452.592 94.484 452.512 94.684 452.352 94.844C452.2 94.996 452.016 95.072 451.8 95.072ZM458.354 95.096C457.858 95.096 457.394 94.992 456.962 94.784C456.53 94.576 456.178 94.276 455.906 93.884L456.602 93.068C456.834 93.388 457.094 93.636 457.382 93.812C457.678 93.98 458.002 94.064 458.354 94.064C459.314 94.064 459.794 93.496 459.794 92.36V87.644H456.758V86.6H460.982V92.3C460.982 93.236 460.758 93.936 460.31 94.4C459.87 94.864 459.218 95.096 458.354 95.096ZM463.246 95V86.6H466.522C467.258 86.6 467.886 86.716 468.406 86.948C468.926 87.18 469.326 87.516 469.606 87.956C469.886 88.396 470.026 88.92 470.026 89.528C470.026 90.136 469.886 90.66 469.606 91.1C469.326 91.532 468.926 91.868 468.406 92.108C467.886 92.34 467.258 92.456 466.522 92.456H463.906L464.446 91.892V95H463.246ZM464.446 92.012L463.906 91.412H466.486C467.254 91.412 467.834 91.248 468.226 90.92C468.626 90.592 468.826 90.128 468.826 89.528C468.826 88.928 468.626 88.464 468.226 88.136C467.834 87.808 467.254 87.644 466.486 87.644H463.906L464.446 87.044V92.012ZM475.518 95.096C474.87 95.096 474.274 94.992 473.73 94.784C473.186 94.568 472.714 94.268 472.314 93.884C471.914 93.492 471.602 93.036 471.378 92.516C471.154 91.996 471.042 91.424 471.042 90.8C471.042 90.176 471.154 89.604 471.378 89.084C471.602 88.564 471.914 88.112 472.314 87.728C472.722 87.336 473.198 87.036 473.742 86.828C474.286 86.612 474.886 86.504 475.542 86.504C476.206 86.504 476.814 86.612 477.366 86.828C477.918 87.044 478.386 87.368 478.77 87.8L478.026 88.544C477.682 88.208 477.306 87.964 476.898 87.812C476.498 87.652 476.062 87.572 475.59 87.572C475.11 87.572 474.662 87.652 474.246 87.812C473.838 87.972 473.482 88.196 473.178 88.484C472.882 88.772 472.65 89.116 472.482 89.516C472.322 89.908 472.242 90.336 472.242 90.8C472.242 91.256 472.322 91.684 472.482 92.084C472.65 92.476 472.882 92.82 473.178 93.116C473.482 93.404 473.838 93.628 474.246 93.788C474.654 93.948 475.098 94.028 475.578 94.028C476.026 94.028 476.454 93.96 476.862 93.824C477.278 93.68 477.662 93.444 478.014 93.116L478.698 94.028C478.282 94.38 477.794 94.648 477.234 94.832C476.682 95.008 476.11 95.096 475.518 95.096ZM477.546 93.872V90.752H478.698V94.028L477.546 93.872ZM480.309 96.776L480.909 94.352L481.065 95.048C480.833 95.048 480.637 94.976 480.477 94.832C480.325 94.688 480.249 94.492 480.249 94.244C480.249 94.004 480.325 93.808 480.477 93.656C480.637 93.504 480.829 93.428 481.053 93.428C481.285 93.428 481.473 93.508 481.617 93.668C481.761 93.82 481.833 94.012 481.833 94.244C481.833 94.324 481.825 94.404 481.809 94.484C481.801 94.556 481.781 94.644 481.749 94.748C481.725 94.844 481.685 94.964 481.629 95.108L481.065 96.776H480.309ZM487.594 95.096C487.098 95.096 486.634 94.992 486.202 94.784C485.77 94.576 485.418 94.276 485.146 93.884L485.842 93.068C486.074 93.388 486.334 93.636 486.622 93.812C486.918 93.98 487.242 94.064 487.594 94.064C488.554 94.064 489.034 93.496 489.034 92.36V87.644H485.998V86.6H490.222V92.3C490.222 93.236 489.998 93.936 489.55 94.4C489.11 94.864 488.458 95.096 487.594 95.096ZM492.487 95V86.6H495.763C496.499 86.6 497.127 86.716 497.647 86.948C498.167 87.18 498.567 87.516 498.847 87.956C499.127 88.396 499.267 88.92 499.267 89.528C499.267 90.136 499.127 90.66 498.847 91.1C498.567 91.532 498.167 91.868 497.647 92.108C497.127 92.34 496.499 92.456 495.763 92.456H493.147L493.687 91.892V95H492.487ZM493.687 92.012L493.147 91.412H495.727C496.495 91.412 497.075 91.248 497.467 90.92C497.867 90.592 498.067 90.128 498.067 89.528C498.067 88.928 497.867 88.464 497.467 88.136C497.075 87.808 496.495 87.644 495.727 87.644H493.147L493.687 87.044V92.012ZM501.942 90.224H506.262V91.244H501.942V90.224ZM502.05 93.956H506.946V95H500.85V86.6H506.778V87.644H502.05V93.956ZM512.489 95.096C511.841 95.096 511.245 94.992 510.701 94.784C510.157 94.568 509.685 94.268 509.285 93.884C508.885 93.492 508.573 93.036 508.349 92.516C508.125 91.996 508.013 91.424 508.013 90.8C508.013 90.176 508.125 89.604 508.349 89.084C508.573 88.564 508.885 88.112 509.285 87.728C509.693 87.336 510.169 87.036 510.713 86.828C511.257 86.612 511.857 86.504 512.513 86.504C513.177 86.504 513.785 86.612 514.337 86.828C514.889 87.044 515.357 87.368 515.741 87.8L514.997 88.544C514.653 88.208 514.277 87.964 513.869 87.812C513.469 87.652 513.033 87.572 512.561 87.572C512.081 87.572 511.633 87.652 511.217 87.812C510.809 87.972 510.453 88.196 510.149 88.484C509.853 88.772 509.621 89.116 509.453 89.516C509.293 89.908 509.213 90.336 509.213 90.8C509.213 91.256 509.293 91.684 509.453 92.084C509.621 92.476 509.853 92.82 510.149 93.116C510.453 93.404 510.809 93.628 511.217 93.788C511.625 93.948 512.069 94.028 512.549 94.028C512.997 94.028 513.425 93.96 513.833 93.824C514.249 93.68 514.633 93.444 514.985 93.116L515.669 94.028C515.253 94.38 514.765 94.648 514.205 94.832C513.653 95.008 513.081 95.096 512.489 95.096ZM514.517 93.872V90.752H515.669V94.028L514.517 93.872ZM517.28 96.776L517.88 94.352L518.036 95.048C517.804 95.048 517.608 94.976 517.448 94.832C517.296 94.688 517.22 94.492 517.22 94.244C517.22 94.004 517.296 93.808 517.448 93.656C517.608 93.504 517.8 93.428 518.024 93.428C518.256 93.428 518.444 93.508 518.588 93.668C518.732 93.82 518.804 94.012 518.804 94.244C518.804 94.324 518.796 94.404 518.78 94.484C518.772 94.556 518.752 94.644 518.72 94.748C518.696 94.844 518.656 94.964 518.6 95.108L518.036 96.776H517.28ZM523.485 95V86.6H526.761C527.497 86.6 528.125 86.716 528.645 86.948C529.165 87.18 529.565 87.516 529.845 87.956C530.125 88.396 530.265 88.92 530.265 89.528C530.265 90.136 530.125 90.66 529.845 91.1C529.565 91.532 529.165 91.868 528.645 92.108C528.125 92.34 527.497 92.456 526.761 92.456H524.145L524.685 91.892V95H523.485ZM524.685 92.012L524.145 91.412H526.725C527.493 91.412 528.073 91.248 528.465 90.92C528.865 90.592 529.065 90.128 529.065 89.528C529.065 88.928 528.865 88.464 528.465 88.136C528.073 87.808 527.493 87.644 526.725 87.644H524.145L524.685 87.044V92.012ZM531.848 95V86.6H532.832L538.388 93.5H537.872V86.6H539.072V95H538.088L532.532 88.1H533.048V95H531.848ZM545.198 95.096C544.55 95.096 543.954 94.992 543.41 94.784C542.866 94.568 542.394 94.268 541.994 93.884C541.594 93.492 541.282 93.036 541.058 92.516C540.834 91.996 540.722 91.424 540.722 90.8C540.722 90.176 540.834 89.604 541.058 89.084C541.282 88.564 541.594 88.112 541.994 87.728C542.402 87.336 542.878 87.036 543.422 86.828C543.966 86.612 544.566 86.504 545.222 86.504C545.886 86.504 546.494 86.612 547.046 86.828C547.598 87.044 548.066 87.368 548.45 87.8L547.706 88.544C547.362 88.208 546.986 87.964 546.578 87.812C546.178 87.652 545.742 87.572 545.27 87.572C544.79 87.572 544.342 87.652 543.926 87.812C543.518 87.972 543.162 88.196 542.858 88.484C542.562 88.772 542.33 89.116 542.162 89.516C542.002 89.908 541.922 90.336 541.922 90.8C541.922 91.256 542.002 91.684 542.162 92.084C542.33 92.476 542.562 92.82 542.858 93.116C543.162 93.404 543.518 93.628 543.926 93.788C544.334 93.948 544.778 94.028 545.258 94.028C545.706 94.028 546.134 93.96 546.542 93.824C546.958 93.68 547.342 93.444 547.694 93.116L548.378 94.028C547.962 94.38 547.474 94.648 546.914 94.832C546.362 95.008 545.79 95.096 545.198 95.096ZM547.226 93.872V90.752H548.378V94.028L547.226 93.872ZM549.989 96.776L550.589 94.352L550.745 95.048C550.513 95.048 550.317 94.976 550.157 94.832C550.005 94.688 549.929 94.492 549.929 94.244C549.929 94.004 550.005 93.808 550.157 93.656C550.317 93.504 550.509 93.428 550.733 93.428C550.965 93.428 551.153 93.508 551.297 93.668C551.441 93.82 551.513 94.012 551.513 94.244C551.513 94.324 551.505 94.404 551.489 94.484C551.481 94.556 551.461 94.644 551.429 94.748C551.405 94.844 551.365 94.964 551.309 95.108L550.745 96.776H549.989ZM556.194 95V86.6H557.178L560.946 92.948H560.418L564.138 86.6H565.122L565.134 95H563.982L563.97 88.412H564.246L560.934 93.98H560.382L557.046 88.412H557.346V95H556.194ZM567.475 95V86.6H570.751C571.487 86.6 572.115 86.716 572.635 86.948C573.155 87.18 573.555 87.516 573.835 87.956C574.115 88.396 574.255 88.92 574.255 89.528C574.255 90.136 574.115 90.66 573.835 91.1C573.555 91.532 573.155 91.868 572.635 92.108C572.115 92.34 571.487 92.456 570.751 92.456H568.135L568.675 91.892V95H567.475ZM568.675 92.012L568.135 91.412H570.715C571.483 91.412 572.063 91.248 572.455 90.92C572.855 90.592 573.055 90.128 573.055 89.528C573.055 88.928 572.855 88.464 572.455 88.136C572.063 87.808 571.483 87.644 570.715 87.644H568.135L568.675 87.044V92.012ZM574.788 92.936V92.096L579.084 86.6H580.38L576.12 92.096L575.508 91.904H582.216V92.936H574.788ZM579.456 95V92.936L579.492 91.904V90.08H580.62V95H579.456ZM589.146 95.072C588.466 95.072 587.866 94.932 587.346 94.652C586.834 94.372 586.434 93.988 586.146 93.5C585.866 93.012 585.726 92.452 585.726 91.82C585.726 91.188 585.862 90.628 586.134 90.14C586.414 89.652 586.794 89.272 587.274 89C587.762 88.72 588.31 88.58 588.918 88.58C589.534 88.58 590.078 88.716 590.55 88.988C591.022 89.26 591.39 89.644 591.654 90.14C591.926 90.628 592.062 91.2 592.062 91.856C592.062 91.904 592.058 91.96 592.05 92.024C592.05 92.088 592.046 92.148 592.038 92.204H586.626V91.376H591.438L590.97 91.664C590.978 91.256 590.894 90.892 590.718 90.572C590.542 90.252 590.298 90.004 589.986 89.828C589.682 89.644 589.326 89.552 588.918 89.552C588.518 89.552 588.162 89.644 587.85 89.828C587.538 90.004 587.294 90.256 587.118 90.584C586.942 90.904 586.854 91.272 586.854 91.688V91.88C586.854 92.304 586.95 92.684 587.142 93.02C587.342 93.348 587.618 93.604 587.97 93.788C588.322 93.972 588.726 94.064 589.182 94.064C589.558 94.064 589.898 94 590.202 93.872C590.514 93.744 590.786 93.552 591.018 93.296L591.654 94.04C591.366 94.376 591.006 94.632 590.574 94.808C590.15 94.984 589.674 95.072 589.146 95.072ZM595.666 95.072C595.026 95.072 594.53 94.9 594.178 94.556C593.826 94.212 593.65 93.72 593.65 93.08V87.248H594.802V93.032C594.802 93.376 594.886 93.64 595.054 93.824C595.23 94.008 595.478 94.1 595.798 94.1C596.158 94.1 596.458 94 596.698 93.8L597.058 94.628C596.882 94.78 596.67 94.892 596.422 94.964C596.182 95.036 595.93 95.072 595.666 95.072ZM592.57 89.588V88.64H596.626V89.588H592.57ZM601.481 95V86.6H602.465L606.233 92.948H605.705L609.425 86.6H610.409L610.421 95H609.269L609.257 88.412H609.533L606.221 93.98H605.669L602.333 88.412H602.633V95H601.481ZM616.554 95.096C615.914 95.096 615.318 94.988 614.766 94.772C614.222 94.556 613.75 94.256 613.35 93.872C612.95 93.48 612.638 93.024 612.414 92.504C612.19 91.984 612.078 91.416 612.078 90.8C612.078 90.184 612.19 89.616 612.414 89.096C612.638 88.576 612.95 88.124 613.35 87.74C613.75 87.348 614.222 87.044 614.766 86.828C615.31 86.612 615.906 86.504 616.554 86.504C617.194 86.504 617.782 86.612 618.318 86.828C618.862 87.036 619.334 87.336 619.734 87.728C620.142 88.112 620.454 88.564 620.67 89.084C620.894 89.604 621.006 90.176 621.006 90.8C621.006 91.424 620.894 91.996 620.67 92.516C620.454 93.036 620.142 93.492 619.734 93.884C619.334 94.268 618.862 94.568 618.318 94.784C617.782 94.992 617.194 95.096 616.554 95.096ZM616.554 94.028C617.018 94.028 617.446 93.948 617.838 93.788C618.238 93.628 618.582 93.404 618.87 93.116C619.166 92.82 619.394 92.476 619.554 92.084C619.722 91.692 619.806 91.264 619.806 90.8C619.806 90.336 619.722 89.908 619.554 89.516C619.394 89.124 619.166 88.784 618.87 88.496C618.582 88.2 618.238 87.972 617.838 87.812C617.446 87.652 617.018 87.572 616.554 87.572C616.082 87.572 615.646 87.652 615.246 87.812C614.854 87.972 614.51 88.2 614.214 88.496C613.918 88.784 613.686 89.124 613.518 89.516C613.358 89.908 613.278 90.336 613.278 90.8C613.278 91.264 613.358 91.692 613.518 92.084C613.686 92.476 613.918 92.82 614.214 93.116C614.51 93.404 614.854 93.628 615.246 93.788C615.646 93.948 616.082 94.028 616.554 94.028ZM624.815 95L621.119 86.6H622.415L625.811 94.352H625.067L628.487 86.6H629.687L626.003 95H624.815Z" fill="#AEB2B8"/>
<rect x="0.5" y="0.5" width="971" height="134" rx="7.5" stroke="#AEB2B8" stroke-linecap="round" stroke-linejoin="round" stroke-dasharray="8 8"/>
</svg>
