<svg width="970" height="135" viewBox="0 0 970 135" fill="none" xmlns="http://www.w3.org/2000/svg">
<path d="M486.875 49.375C486.875 49.1264 486.776 48.8879 486.6 48.7121C486.425 48.5363 486.186 48.4375 485.938 48.4375C485.689 48.4375 485.45 48.5363 485.275 48.7121C485.099 48.8879 485 49.1264 485 49.375V55H481.25C481.001 55 480.763 55.0988 480.587 55.2746C480.411 55.4504 480.312 55.6889 480.312 55.9375C480.312 56.1861 480.411 56.4246 480.587 56.6004C480.763 56.7762 481.001 56.875 481.25 56.875H485.938C486.186 56.875 486.425 56.7762 486.6 56.6004C486.776 56.4246 486.875 56.1861 486.875 55.9375V49.375Z" fill="#AEB2B8"/>
<path d="M477.5 43.1256V43.8437C476.441 44.0599 475.49 44.6352 474.806 45.4723C474.123 46.3094 473.75 47.3569 473.75 48.4375V61.5625C473.75 62.6431 474.123 63.6906 474.806 64.5277C475.49 65.3648 476.441 65.9401 477.5 66.1562V66.8744C477.5 68.5994 478.899 70 480.626 70H489.374C491.099 70 492.5 68.6013 492.5 66.8744V66.1562C493.559 65.9401 494.51 65.3648 495.194 64.5277C495.877 63.6906 496.25 62.6431 496.25 61.5625V55H497.188C497.436 55 497.675 54.9012 497.85 54.7254C498.026 54.5496 498.125 54.3111 498.125 54.0625V50.3125C498.125 50.0639 498.026 49.8254 497.85 49.6496C497.675 49.4738 497.436 49.375 497.188 49.375H496.25V48.4375C496.25 47.3569 495.877 46.3094 495.194 45.4723C494.51 44.6352 493.559 44.0599 492.5 43.8437V43.1256C492.5 41.4006 491.101 40 489.374 40H480.626C478.901 40 477.5 41.3988 477.5 43.1256ZM478.438 45.625H491.562C492.308 45.625 493.024 45.9213 493.551 46.4488C494.079 46.9762 494.375 47.6916 494.375 48.4375V61.5625C494.375 62.3084 494.079 63.0238 493.551 63.5512C493.024 64.0787 492.308 64.375 491.562 64.375H478.438C477.692 64.375 476.976 64.0787 476.449 63.5512C475.921 63.0238 475.625 62.3084 475.625 61.5625V48.4375C475.625 47.6916 475.921 46.9762 476.449 46.4488C476.976 45.9213 477.692 45.625 478.438 45.625V45.625Z" fill="#AEB2B8"/>
<path d="M383.84 87.572H388.172V88.604H383.84V87.572ZM383.96 92H382.76V83.6H388.688V84.644H383.96V92ZM392.554 92.072C391.914 92.072 391.346 91.932 390.85 91.652C390.354 91.372 389.962 90.988 389.674 90.5C389.386 90.004 389.242 89.444 389.242 88.82C389.242 88.188 389.386 87.628 389.674 87.14C389.962 86.652 390.354 86.272 390.85 86C391.346 85.72 391.914 85.58 392.554 85.58C393.186 85.58 393.75 85.72 394.246 86C394.75 86.272 395.142 86.652 395.422 87.14C395.71 87.62 395.854 88.18 395.854 88.82C395.854 89.452 395.71 90.012 395.422 90.5C395.142 90.988 394.75 91.372 394.246 91.652C393.75 91.932 393.186 92.072 392.554 92.072ZM392.554 91.064C392.962 91.064 393.326 90.972 393.646 90.788C393.974 90.604 394.23 90.344 394.414 90.008C394.598 89.664 394.69 89.268 394.69 88.82C394.69 88.364 394.598 87.972 394.414 87.644C394.23 87.308 393.974 87.048 393.646 86.864C393.326 86.68 392.962 86.588 392.554 86.588C392.146 86.588 391.782 86.68 391.462 86.864C391.142 87.048 390.886 87.308 390.694 87.644C390.502 87.972 390.406 88.364 390.406 88.82C390.406 89.268 390.502 89.664 390.694 90.008C390.886 90.344 391.142 90.604 391.462 90.788C391.782 90.972 392.146 91.064 392.554 91.064ZM397.267 92V85.64H398.371V87.368L398.263 86.936C398.439 86.496 398.735 86.16 399.151 85.928C399.567 85.696 400.079 85.58 400.687 85.58V86.696C400.639 86.688 400.591 86.684 400.543 86.684C400.503 86.684 400.463 86.684 400.423 86.684C399.807 86.684 399.319 86.868 398.959 87.236C398.599 87.604 398.419 88.136 398.419 88.832V92H397.267ZM409.883 85.58C410.395 85.58 410.847 85.68 411.239 85.88C411.631 86.08 411.935 86.384 412.151 86.792C412.375 87.2 412.487 87.716 412.487 88.34V92H411.335V88.472C411.335 87.856 411.191 87.392 410.903 87.08C410.615 86.768 410.211 86.612 409.691 86.612C409.307 86.612 408.971 86.692 408.683 86.852C408.395 87.012 408.171 87.248 408.011 87.56C407.859 87.872 407.783 88.26 407.783 88.724V92H406.631V88.472C406.631 87.856 406.487 87.392 406.199 87.08C405.919 86.768 405.515 86.612 404.987 86.612C404.611 86.612 404.279 86.692 403.991 86.852C403.703 87.012 403.479 87.248 403.319 87.56C403.159 87.872 403.079 88.26 403.079 88.724V92H401.927V85.64H403.031V87.332L402.851 86.9C403.051 86.484 403.359 86.16 403.775 85.928C404.191 85.696 404.675 85.58 405.227 85.58C405.835 85.58 406.359 85.732 406.799 86.036C407.239 86.332 407.527 86.784 407.663 87.392L407.195 87.2C407.387 86.712 407.723 86.32 408.203 86.024C408.683 85.728 409.243 85.58 409.883 85.58ZM418.375 92V90.656L418.315 90.404V88.112C418.315 87.624 418.171 87.248 417.883 86.984C417.603 86.712 417.179 86.576 416.611 86.576C416.235 86.576 415.867 86.64 415.507 86.768C415.147 86.888 414.843 87.052 414.595 87.26L414.115 86.396C414.443 86.132 414.835 85.932 415.291 85.796C415.755 85.652 416.239 85.58 416.743 85.58C417.615 85.58 418.287 85.792 418.759 86.216C419.231 86.64 419.467 87.288 419.467 88.16V92H418.375ZM416.287 92.072C415.815 92.072 415.399 91.992 415.039 91.832C414.687 91.672 414.415 91.452 414.223 91.172C414.031 90.884 413.935 90.56 413.935 90.2C413.935 89.856 414.015 89.544 414.175 89.264C414.343 88.984 414.611 88.76 414.979 88.592C415.355 88.424 415.859 88.34 416.491 88.34H418.507V89.168H416.539C415.963 89.168 415.575 89.264 415.375 89.456C415.175 89.648 415.075 89.88 415.075 90.152C415.075 90.464 415.199 90.716 415.447 90.908C415.695 91.092 416.039 91.184 416.479 91.184C416.911 91.184 417.287 91.088 417.607 90.896C417.935 90.704 418.171 90.424 418.315 90.056L418.543 90.848C418.391 91.224 418.123 91.524 417.739 91.748C417.355 91.964 416.871 92.072 416.287 92.072ZM423.603 92.072C422.963 92.072 422.467 91.9 422.115 91.556C421.763 91.212 421.587 90.72 421.587 90.08V84.248H422.739V90.032C422.739 90.376 422.823 90.64 422.991 90.824C423.167 91.008 423.415 91.1 423.735 91.1C424.095 91.1 424.395 91 424.635 90.8L424.995 91.628C424.819 91.78 424.607 91.892 424.359 91.964C424.119 92.036 423.867 92.072 423.603 92.072ZM420.507 86.588V85.64H424.563V86.588H420.507ZM428.031 92.072C427.503 92.072 426.999 92 426.519 91.856C426.047 91.712 425.675 91.536 425.403 91.328L425.883 90.416C426.155 90.6 426.491 90.756 426.891 90.884C427.291 91.012 427.699 91.076 428.115 91.076C428.651 91.076 429.035 91 429.267 90.848C429.507 90.696 429.627 90.484 429.627 90.212C429.627 90.012 429.555 89.856 429.411 89.744C429.267 89.632 429.075 89.548 428.835 89.492C428.603 89.436 428.343 89.388 428.055 89.348C427.767 89.3 427.479 89.244 427.191 89.18C426.903 89.108 426.639 89.012 426.399 88.892C426.159 88.764 425.967 88.592 425.823 88.376C425.679 88.152 425.607 87.856 425.607 87.488C425.607 87.104 425.715 86.768 425.931 86.48C426.147 86.192 426.451 85.972 426.843 85.82C427.243 85.66 427.715 85.58 428.259 85.58C428.675 85.58 429.095 85.632 429.519 85.736C429.951 85.832 430.303 85.972 430.575 86.156L430.083 87.068C429.795 86.876 429.495 86.744 429.183 86.672C428.871 86.6 428.559 86.564 428.247 86.564C427.743 86.564 427.367 86.648 427.119 86.816C426.871 86.976 426.747 87.184 426.747 87.44C426.747 87.656 426.819 87.824 426.963 87.944C427.115 88.056 427.307 88.144 427.539 88.208C427.779 88.272 428.043 88.328 428.331 88.376C428.619 88.416 428.907 88.472 429.195 88.544C429.483 88.608 429.743 88.7 429.975 88.82C430.215 88.94 430.407 89.108 430.551 89.324C430.703 89.54 430.779 89.828 430.779 90.188C430.779 90.572 430.667 90.904 430.443 91.184C430.219 91.464 429.903 91.684 429.495 91.844C429.087 91.996 428.599 92.072 428.031 92.072ZM439.03 92V90.656L438.97 90.404V88.112C438.97 87.624 438.826 87.248 438.538 86.984C438.258 86.712 437.834 86.576 437.266 86.576C436.89 86.576 436.522 86.64 436.162 86.768C435.802 86.888 435.498 87.052 435.25 87.26L434.77 86.396C435.098 86.132 435.49 85.932 435.946 85.796C436.41 85.652 436.894 85.58 437.398 85.58C438.27 85.58 438.942 85.792 439.414 86.216C439.886 86.64 440.122 87.288 440.122 88.16V92H439.03ZM436.942 92.072C436.47 92.072 436.054 91.992 435.694 91.832C435.342 91.672 435.07 91.452 434.878 91.172C434.686 90.884 434.59 90.56 434.59 90.2C434.59 89.856 434.67 89.544 434.83 89.264C434.998 88.984 435.266 88.76 435.634 88.592C436.01 88.424 436.514 88.34 437.146 88.34H439.162V89.168H437.194C436.618 89.168 436.23 89.264 436.03 89.456C435.83 89.648 435.73 89.88 435.73 90.152C435.73 90.464 435.854 90.716 436.102 90.908C436.35 91.092 436.694 91.184 437.134 91.184C437.566 91.184 437.942 91.088 438.262 90.896C438.59 90.704 438.826 90.424 438.97 90.056L439.198 90.848C439.046 91.224 438.778 91.524 438.394 91.748C438.01 91.964 437.526 92.072 436.942 92.072ZM444.846 92.072C444.198 92.072 443.618 91.932 443.106 91.652C442.602 91.372 442.206 90.988 441.918 90.5C441.63 90.012 441.486 89.452 441.486 88.82C441.486 88.188 441.63 87.628 441.918 87.14C442.206 86.652 442.602 86.272 443.106 86C443.618 85.72 444.198 85.58 444.846 85.58C445.422 85.58 445.934 85.696 446.382 85.928C446.838 86.152 447.19 86.488 447.438 86.936L446.562 87.5C446.354 87.188 446.098 86.96 445.794 86.816C445.498 86.664 445.178 86.588 444.834 86.588C444.418 86.588 444.046 86.68 443.718 86.864C443.39 87.048 443.13 87.308 442.938 87.644C442.746 87.972 442.65 88.364 442.65 88.82C442.65 89.276 442.746 89.672 442.938 90.008C443.13 90.344 443.39 90.604 443.718 90.788C444.046 90.972 444.418 91.064 444.834 91.064C445.178 91.064 445.498 90.992 445.794 90.848C446.098 90.696 446.354 90.464 446.562 90.152L447.438 90.704C447.19 91.144 446.838 91.484 446.382 91.724C445.934 91.956 445.422 92.072 444.846 92.072ZM451.427 92.072C450.779 92.072 450.199 91.932 449.687 91.652C449.183 91.372 448.787 90.988 448.499 90.5C448.211 90.012 448.067 89.452 448.067 88.82C448.067 88.188 448.211 87.628 448.499 87.14C448.787 86.652 449.183 86.272 449.687 86C450.199 85.72 450.779 85.58 451.427 85.58C452.003 85.58 452.515 85.696 452.963 85.928C453.419 86.152 453.771 86.488 454.019 86.936L453.143 87.5C452.935 87.188 452.679 86.96 452.375 86.816C452.079 86.664 451.759 86.588 451.415 86.588C450.999 86.588 450.627 86.68 450.299 86.864C449.971 87.048 449.711 87.308 449.519 87.644C449.327 87.972 449.231 88.364 449.231 88.82C449.231 89.276 449.327 89.672 449.519 90.008C449.711 90.344 449.971 90.604 450.299 90.788C450.627 90.972 450.999 91.064 451.415 91.064C451.759 91.064 452.079 90.992 452.375 90.848C452.679 90.696 452.935 90.464 453.143 90.152L454.019 90.704C453.771 91.144 453.419 91.484 452.963 91.724C452.515 91.956 452.003 92.072 451.427 92.072ZM458.069 92.072C457.389 92.072 456.789 91.932 456.269 91.652C455.757 91.372 455.357 90.988 455.069 90.5C454.789 90.012 454.649 89.452 454.649 88.82C454.649 88.188 454.785 87.628 455.057 87.14C455.337 86.652 455.717 86.272 456.197 86C456.685 85.72 457.233 85.58 457.841 85.58C458.457 85.58 459.001 85.716 459.473 85.988C459.945 86.26 460.313 86.644 460.577 87.14C460.849 87.628 460.985 88.2 460.985 88.856C460.985 88.904 460.981 88.96 460.973 89.024C460.973 89.088 460.969 89.148 460.961 89.204H455.549V88.376H460.361L459.893 88.664C459.901 88.256 459.817 87.892 459.641 87.572C459.465 87.252 459.221 87.004 458.909 86.828C458.605 86.644 458.249 86.552 457.841 86.552C457.441 86.552 457.085 86.644 456.773 86.828C456.461 87.004 456.217 87.256 456.041 87.584C455.865 87.904 455.777 88.272 455.777 88.688V88.88C455.777 89.304 455.873 89.684 456.065 90.02C456.265 90.348 456.541 90.604 456.893 90.788C457.245 90.972 457.649 91.064 458.105 91.064C458.481 91.064 458.821 91 459.125 90.872C459.437 90.744 459.709 90.552 459.941 90.296L460.577 91.04C460.289 91.376 459.929 91.632 459.497 91.808C459.073 91.984 458.597 92.072 458.069 92.072ZM465.777 92.072C465.249 92.072 464.765 91.952 464.325 91.712C463.893 91.464 463.545 91.1 463.281 90.62C463.025 90.14 462.897 89.54 462.897 88.82C462.897 88.1 463.021 87.5 463.269 87.02C463.525 86.54 463.869 86.18 464.301 85.94C464.741 85.7 465.233 85.58 465.777 85.58C466.401 85.58 466.953 85.716 467.433 85.988C467.913 86.26 468.293 86.64 468.573 87.128C468.853 87.608 468.993 88.172 468.993 88.82C468.993 89.468 468.853 90.036 468.573 90.524C468.293 91.012 467.913 91.392 467.433 91.664C466.953 91.936 466.401 92.072 465.777 92.072ZM462.405 94.328V85.64H463.509V87.356L463.437 88.832L463.557 90.308V94.328H462.405ZM465.681 91.064C466.089 91.064 466.453 90.972 466.773 90.788C467.101 90.604 467.357 90.344 467.541 90.008C467.733 89.664 467.829 89.268 467.829 88.82C467.829 88.364 467.733 87.972 467.541 87.644C467.357 87.308 467.101 87.048 466.773 86.864C466.453 86.68 466.089 86.588 465.681 86.588C465.281 86.588 464.917 86.68 464.589 86.864C464.269 87.048 464.013 87.308 463.821 87.644C463.637 87.972 463.545 88.364 463.545 88.82C463.545 89.268 463.637 89.664 463.821 90.008C464.013 90.344 464.269 90.604 464.589 90.788C464.917 90.972 465.281 91.064 465.681 91.064ZM472.588 92.072C471.948 92.072 471.452 91.9 471.1 91.556C470.748 91.212 470.572 90.72 470.572 90.08V84.248H471.724V90.032C471.724 90.376 471.808 90.64 471.976 90.824C472.152 91.008 472.4 91.1 472.72 91.1C473.08 91.1 473.38 91 473.62 90.8L473.98 91.628C473.804 91.78 473.592 91.892 473.344 91.964C473.104 92.036 472.852 92.072 472.588 92.072ZM469.492 86.588V85.64H473.548V86.588H469.492ZM477.814 92.072C477.134 92.072 476.534 91.932 476.014 91.652C475.502 91.372 475.102 90.988 474.814 90.5C474.534 90.012 474.394 89.452 474.394 88.82C474.394 88.188 474.53 87.628 474.802 87.14C475.082 86.652 475.462 86.272 475.942 86C476.43 85.72 476.978 85.58 477.586 85.58C478.202 85.58 478.746 85.716 479.218 85.988C479.69 86.26 480.058 86.644 480.322 87.14C480.594 87.628 480.73 88.2 480.73 88.856C480.73 88.904 480.726 88.96 480.718 89.024C480.718 89.088 480.714 89.148 480.706 89.204H475.294V88.376H480.106L479.638 88.664C479.646 88.256 479.562 87.892 479.386 87.572C479.21 87.252 478.966 87.004 478.654 86.828C478.35 86.644 477.994 86.552 477.586 86.552C477.186 86.552 476.83 86.644 476.518 86.828C476.206 87.004 475.962 87.256 475.786 87.584C475.61 87.904 475.522 88.272 475.522 88.688V88.88C475.522 89.304 475.618 89.684 475.81 90.02C476.01 90.348 476.286 90.604 476.638 90.788C476.99 90.972 477.394 91.064 477.85 91.064C478.226 91.064 478.566 91 478.87 90.872C479.182 90.744 479.454 90.552 479.686 90.296L480.322 91.04C480.034 91.376 479.674 91.632 479.242 91.808C478.818 91.984 478.342 92.072 477.814 92.072ZM476.674 84.716L478.306 83.156H479.77L477.754 84.716H476.674ZM483.974 92.072C483.446 92.072 482.942 92 482.462 91.856C481.99 91.712 481.618 91.536 481.346 91.328L481.826 90.416C482.098 90.6 482.434 90.756 482.834 90.884C483.234 91.012 483.642 91.076 484.058 91.076C484.594 91.076 484.978 91 485.21 90.848C485.45 90.696 485.57 90.484 485.57 90.212C485.57 90.012 485.498 89.856 485.354 89.744C485.21 89.632 485.018 89.548 484.778 89.492C484.546 89.436 484.286 89.388 483.998 89.348C483.71 89.3 483.422 89.244 483.134 89.18C482.846 89.108 482.582 89.012 482.342 88.892C482.102 88.764 481.91 88.592 481.766 88.376C481.622 88.152 481.55 87.856 481.55 87.488C481.55 87.104 481.658 86.768 481.874 86.48C482.09 86.192 482.394 85.972 482.786 85.82C483.186 85.66 483.658 85.58 484.202 85.58C484.618 85.58 485.038 85.632 485.462 85.736C485.894 85.832 486.246 85.972 486.518 86.156L486.026 87.068C485.738 86.876 485.438 86.744 485.126 86.672C484.814 86.6 484.502 86.564 484.19 86.564C483.686 86.564 483.31 86.648 483.062 86.816C482.814 86.976 482.69 87.184 482.69 87.44C482.69 87.656 482.762 87.824 482.906 87.944C483.058 88.056 483.25 88.144 483.482 88.208C483.722 88.272 483.986 88.328 484.274 88.376C484.562 88.416 484.85 88.472 485.138 88.544C485.426 88.608 485.686 88.7 485.918 88.82C486.158 88.94 486.35 89.108 486.494 89.324C486.646 89.54 486.722 89.828 486.722 90.188C486.722 90.572 486.61 90.904 486.386 91.184C486.162 91.464 485.846 91.684 485.438 91.844C485.03 91.996 484.542 92.072 483.974 92.072ZM491.3 87.224C491.076 87.224 490.884 87.148 490.724 86.996C490.564 86.836 490.484 86.636 490.484 86.396C490.484 86.156 490.564 85.96 490.724 85.808C490.884 85.656 491.076 85.58 491.3 85.58C491.516 85.58 491.7 85.656 491.852 85.808C492.012 85.96 492.092 86.156 492.092 86.396C492.092 86.636 492.012 86.836 491.852 86.996C491.7 87.148 491.516 87.224 491.3 87.224ZM491.3 92.072C491.076 92.072 490.884 91.996 490.724 91.844C490.564 91.684 490.484 91.484 490.484 91.244C490.484 91.004 490.564 90.808 490.724 90.656C490.884 90.504 491.076 90.428 491.3 90.428C491.516 90.428 491.7 90.504 491.852 90.656C492.012 90.808 492.092 91.004 492.092 91.244C492.092 91.484 492.012 91.684 491.852 91.844C491.7 91.996 491.516 92.072 491.3 92.072ZM500.566 92.096C499.918 92.096 499.322 91.992 498.778 91.784C498.234 91.568 497.762 91.268 497.362 90.884C496.962 90.492 496.65 90.036 496.426 89.516C496.202 88.996 496.09 88.424 496.09 87.8C496.09 87.176 496.202 86.604 496.426 86.084C496.65 85.564 496.962 85.112 497.362 84.728C497.77 84.336 498.246 84.036 498.79 83.828C499.334 83.612 499.934 83.504 500.59 83.504C501.254 83.504 501.862 83.612 502.414 83.828C502.966 84.044 503.434 84.368 503.818 84.8L503.074 85.544C502.73 85.208 502.354 84.964 501.946 84.812C501.546 84.652 501.11 84.572 500.638 84.572C500.158 84.572 499.71 84.652 499.294 84.812C498.886 84.972 498.53 85.196 498.226 85.484C497.93 85.772 497.698 86.116 497.53 86.516C497.37 86.908 497.29 87.336 497.29 87.8C497.29 88.256 497.37 88.684 497.53 89.084C497.698 89.476 497.93 89.82 498.226 90.116C498.53 90.404 498.886 90.628 499.294 90.788C499.702 90.948 500.146 91.028 500.626 91.028C501.074 91.028 501.502 90.96 501.91 90.824C502.326 90.68 502.71 90.444 503.062 90.116L503.746 91.028C503.33 91.38 502.842 91.648 502.282 91.832C501.73 92.008 501.158 92.096 500.566 92.096ZM502.594 90.872V87.752H503.746V91.028L502.594 90.872ZM505.863 92V83.6H509.139C509.875 83.6 510.503 83.716 511.023 83.948C511.543 84.18 511.943 84.516 512.223 84.956C512.503 85.396 512.643 85.92 512.643 86.528C512.643 87.136 512.503 87.66 512.223 88.1C511.943 88.532 511.543 88.868 511.023 89.108C510.503 89.34 509.875 89.456 509.139 89.456H506.523L507.063 88.892V92H505.863ZM507.063 89.012L506.523 88.412H509.103C509.871 88.412 510.451 88.248 510.843 87.92C511.243 87.592 511.443 87.128 511.443 86.528C511.443 85.928 511.243 85.464 510.843 85.136C510.451 84.808 509.871 84.644 509.103 84.644H506.523L507.063 84.044V89.012ZM512.935 92L516.427 87.236V88.16L513.127 83.6H514.495L517.111 87.188L516.571 87.2L519.175 83.6H520.483L517.207 88.088V87.224L520.699 92H519.319L516.535 88.172H517.063L514.315 92H512.935ZM521.309 93.776L521.909 91.352L522.065 92.048C521.833 92.048 521.637 91.976 521.477 91.832C521.325 91.688 521.249 91.492 521.249 91.244C521.249 91.004 521.325 90.808 521.477 90.656C521.637 90.504 521.829 90.428 522.053 90.428C522.285 90.428 522.473 90.508 522.617 90.668C522.761 90.82 522.833 91.012 522.833 91.244C522.833 91.324 522.825 91.404 522.809 91.484C522.801 91.556 522.781 91.644 522.749 91.748C522.725 91.844 522.685 91.964 522.629 92.108L522.065 93.776H521.309ZM529.182 92V84.644H526.302V83.6H533.25V84.644H530.37V92H529.182ZM538.016 92.096C537.376 92.096 536.784 91.992 536.24 91.784C535.704 91.568 535.236 91.268 534.836 90.884C534.444 90.492 534.136 90.036 533.912 89.516C533.688 88.996 533.576 88.424 533.576 87.8C533.576 87.176 533.688 86.604 533.912 86.084C534.136 85.564 534.448 85.112 534.848 84.728C535.248 84.336 535.716 84.036 536.252 83.828C536.796 83.612 537.388 83.504 538.028 83.504C538.676 83.504 539.272 83.616 539.816 83.84C540.368 84.056 540.836 84.38 541.22 84.812L540.44 85.568C540.12 85.232 539.76 84.984 539.36 84.824C538.96 84.656 538.532 84.572 538.076 84.572C537.604 84.572 537.164 84.652 536.756 84.812C536.356 84.972 536.008 85.196 535.712 85.484C535.416 85.772 535.184 86.116 535.016 86.516C534.856 86.908 534.776 87.336 534.776 87.8C534.776 88.264 534.856 88.696 535.016 89.096C535.184 89.488 535.416 89.828 535.712 90.116C536.008 90.404 536.356 90.628 536.756 90.788C537.164 90.948 537.604 91.028 538.076 91.028C538.532 91.028 538.96 90.948 539.36 90.788C539.76 90.62 540.12 90.364 540.44 90.02L541.22 90.776C540.836 91.208 540.368 91.536 539.816 91.76C539.272 91.984 538.672 92.096 538.016 92.096ZM541.449 92L544.941 87.236V88.16L541.641 83.6H543.009L545.625 87.188L545.085 87.2L547.689 83.6H548.997L545.721 88.088V87.224L549.213 92H547.833L545.049 88.172H545.577L542.829 92H541.449ZM549.823 93.776L550.423 91.352L550.579 92.048C550.347 92.048 550.151 91.976 549.991 91.832C549.839 91.688 549.763 91.492 549.763 91.244C549.763 91.004 549.839 90.808 549.991 90.656C550.151 90.504 550.343 90.428 550.567 90.428C550.799 90.428 550.987 90.508 551.131 90.668C551.275 90.82 551.347 91.012 551.347 91.244C551.347 91.324 551.339 91.404 551.323 91.484C551.315 91.556 551.295 91.644 551.263 91.748C551.239 91.844 551.199 91.964 551.143 92.108L550.579 93.776H549.823ZM558.692 92.072C558.012 92.072 557.412 91.932 556.892 91.652C556.38 91.372 555.98 90.988 555.692 90.5C555.412 90.012 555.272 89.452 555.272 88.82C555.272 88.188 555.408 87.628 555.68 87.14C555.96 86.652 556.34 86.272 556.82 86C557.308 85.72 557.856 85.58 558.464 85.58C559.08 85.58 559.624 85.716 560.096 85.988C560.568 86.26 560.936 86.644 561.2 87.14C561.472 87.628 561.608 88.2 561.608 88.856C561.608 88.904 561.604 88.96 561.596 89.024C561.596 89.088 561.592 89.148 561.584 89.204H556.172V88.376H560.984L560.516 88.664C560.524 88.256 560.44 87.892 560.264 87.572C560.088 87.252 559.844 87.004 559.532 86.828C559.228 86.644 558.872 86.552 558.464 86.552C558.064 86.552 557.708 86.644 557.396 86.828C557.084 87.004 556.84 87.256 556.664 87.584C556.488 87.904 556.4 88.272 556.4 88.688V88.88C556.4 89.304 556.496 89.684 556.688 90.02C556.888 90.348 557.164 90.604 557.516 90.788C557.868 90.972 558.272 91.064 558.728 91.064C559.104 91.064 559.444 91 559.748 90.872C560.06 90.744 560.332 90.552 560.564 90.296L561.2 91.04C560.912 91.376 560.552 91.632 560.12 91.808C559.696 91.984 559.22 92.072 558.692 92.072ZM565.212 92.072C564.572 92.072 564.076 91.9 563.724 91.556C563.372 91.212 563.196 90.72 563.196 90.08V84.248H564.348V90.032C564.348 90.376 564.432 90.64 564.6 90.824C564.776 91.008 565.024 91.1 565.344 91.1C565.704 91.1 566.004 91 566.244 90.8L566.604 91.628C566.428 91.78 566.216 91.892 565.968 91.964C565.728 92.036 565.476 92.072 565.212 92.072ZM562.116 86.588V85.64H566.172V86.588H562.116ZM572.107 87.572H576.439V88.604H572.107V87.572ZM572.227 92H571.027V83.6H576.955V84.644H572.227V92ZM578.465 92V83.6H579.665V92H578.465ZM583.667 92V84.644H580.787V83.6H587.735V84.644H584.855V92H583.667Z" fill="#AEB2B8"/>
<rect x="0.5" y="0.5" width="969" height="134" rx="7.5" stroke="#AEB2B8" stroke-linecap="round" stroke-linejoin="round" stroke-dasharray="8 8"/>
</svg>
