<?xml version="1.0" encoding="UTF-8"?><svg xmlns="http://www.w3.org/2000/svg" viewBox="0 0 504.19 150.8"><defs><style>.d{fill:#04477c;}.e{fill:#1d1d1b;}</style></defs><g id="a"/><g id="b"><g id="c"><g><g><path class="e" d="M0,88.22l6.56-14.56c7.04,5.13,17.54,8.71,27.57,8.71,11.46,0,16.11-3.82,16.11-8.95,0-15.63-48.57-4.89-48.57-35.92C1.67,23.29,13.13,11.48,36.88,11.48c10.5,0,21.24,2.51,29,7.4l-5.97,14.68c-7.76-4.42-15.75-6.56-23.15-6.56-11.46,0-15.87,4.3-15.87,9.55,0,15.39,48.57,4.77,48.57,35.44,0,13.96-11.58,25.9-35.44,25.9-13.25,0-26.61-3.94-34.01-9.67Z"/><path class="e" d="M113.13,63.63l-11.22,11.7v21.12h-19.21V12.91h19.21V51.94L138.91,12.91h21.48l-34.61,37.23,36.64,46.3h-22.56l-26.73-32.82Z"/><path class="e" d="M171.01,12.91h19.33V96.45h-19.33V12.91Z"/><path class="d" d="M210.15,12.91h37.95c27.33,0,46.07,16.47,46.07,41.77s-18.74,41.77-46.07,41.77h-37.95V12.91Zm37,67.67c16.59,0,27.45-9.91,27.45-25.9s-10.86-25.9-27.45-25.9h-17.66v51.79h17.66Z"/><path class="d" d="M486.05,96.45l-.12-50.12-24.58,41.29h-8.71l-24.46-40.22v49.05h-18.14V12.91h15.99l31.27,51.91,30.79-51.91h15.87l.24,83.54h-18.14Z"/></g><g><path class="d" d="M403.49,130.77c-.89-1.08-2.16-2.1-3.77-3.04-2.84-1.66-6.82-3.13-11.84-4.37-5.53-1.37-12.05-2.39-19.15-3.04-1.23,1.89-2.41,3.7-3.52,5.41,7.98,.59,15.28,1.65,21.31,3.14,4.42,1.09,8,2.39,10.34,3.76,2.1,1.23,2.66,2.19,2.66,2.53s-.56,1.3-2.66,2.53c-2.34,1.37-5.91,2.67-10.34,3.76-9.56,2.36-22.31,3.66-35.91,3.66s-26.35-1.3-35.91-3.66c-4.42-1.09-8-2.39-10.34-3.76-2.1-1.23-2.66-2.19-2.66-2.53s.56-1.3,2.66-2.53c2.34-1.37,5.91-2.67,10.34-3.76,6-1.48,13.27-2.55,21.21-3.14l-3.55-5.41c-7.05,.65-13.53,1.67-19.02,3.03-5.02,1.24-9,2.71-11.84,4.37-1.61,.94-2.88,1.96-3.77,3.04-1.13,1.37-1.7,2.84-1.7,4.39s.57,3.02,1.7,4.39c.89,1.08,2.16,2.1,3.77,3.04,2.84,1.66,6.82,3.13,11.84,4.37,9.99,2.47,23.23,3.83,37.27,3.83s27.28-1.36,37.27-3.83c5.02-1.24,9-2.71,11.84-4.37,1.61-.94,2.88-1.96,3.77-3.04,1.13-1.37,1.7-2.84,1.7-4.39s-.57-3.02-1.7-4.39Z"/><path class="d" d="M371.41,4.83c-5.49-2.72-11.36-4.31-17.46-4.72-1.07-.07-2.15-.11-3.21-.11-.57,0-1.15,.01-1.72,.03,.49,.02,.98,.04,1.47,.08,6.1,.42,11.97,2.01,17.46,4.72,17.32,8.57,27.76,28.04,26.58,46.57-1.49,23.36-18.76,41.42-31.27,60.19-4.74,7.11-9.65,14.15-14.28,21.34q1.77,2.65,1.77,2.65c5.11-8.11,10.64-16,15.96-23.99,12.51-18.77,29.79-36.83,31.27-60.19,1.18-18.53-9.26-38-26.58-46.57Z"/><path class="d" d="M367.95,4.83c-5.49-2.72-11.36-4.31-17.46-4.72-.49-.03-.98-.06-1.47-.08-2.81,.1-5.61,.46-8.34,1.07-3.2,.71-6.34,1.78-9.34,3.16-2.94,1.36-5.76,3.03-8.38,4.97-2.6,1.93-5.02,4.13-7.2,6.55-2.17,2.41-4.11,5.05-5.78,7.85-1.68,2.83-3.09,5.85-4.18,8.96-4.13,11.8-3.28,24.36,1.46,35.85,.18,.44,.37,.88,.56,1.32,6.38,14.44,17.22,27.32,25.99,40.45,3.98,5.96,7.96,11.92,11.94,17.88,1.46,2.19,2.49,3.73,3.22,4.83,4.63-7.19,9.54-14.23,14.28-21.34,12.51-18.77,29.79-36.83,31.27-60.19,1.18-18.53-9.26-38-26.58-46.57Zm-17.34,66.16c-13.83,0-25.04-11.21-25.04-25.04s11.21-25.04,25.04-25.04,25.04,11.21,25.04,25.04-11.21,25.04-25.04,25.04Z"/></g></g></g></g></svg>