<svg width="42" height="42" viewBox="0 0 42 42" fill="none" xmlns="http://www.w3.org/2000/svg">
<circle cx="21" cy="21" r="21" fill="#04477C"/>
<path d="M26.7017 22.2864C25.9846 23.7399 25.0128 25.1879 24.0192 26.4881C23.0766 27.7139 22.0688 28.888 21 30.0055C19.9312 28.888 18.9234 27.7139 17.9808 26.4881C16.9872 25.1879 16.0154 23.7399 15.2983 22.2864C14.5729 20.8178 14.1568 19.4423 14.1568 18.2626C14.1568 16.4477 14.8778 14.7071 16.1612 13.4237C17.4445 12.1404 19.1851 11.4194 21 11.4194C22.8149 11.4194 24.5555 12.1404 25.8389 13.4237C27.1222 14.7071 27.8432 16.4477 27.8432 18.2626C27.8432 19.4423 27.4258 20.8178 26.7017 22.2864ZM21 31.9489C21 31.9489 29.2118 24.1669 29.2118 18.2626C29.2118 16.0847 28.3466 13.996 26.8066 12.456C25.2666 10.916 23.1779 10.0508 21 10.0508C18.8221 10.0508 16.7334 10.916 15.1934 12.456C13.6534 13.996 12.7882 16.0847 12.7882 18.2626C12.7882 24.1669 21 31.9489 21 31.9489Z" fill="white"/>
<path d="M21 20.9994C20.274 20.9994 19.5778 20.711 19.0645 20.1977C18.5511 19.6844 18.2627 18.9881 18.2627 18.2622C18.2627 17.5362 18.5511 16.8399 19.0645 16.3266C19.5778 15.8133 20.274 15.5249 21 15.5249C21.726 15.5249 22.4222 15.8133 22.9355 16.3266C23.4489 16.8399 23.7373 17.5362 23.7373 18.2622C23.7373 18.9881 23.4489 19.6844 22.9355 20.1977C22.4222 20.711 21.726 20.9994 21 20.9994ZM21 22.3681C22.089 22.3681 23.1333 21.9355 23.9033 21.1655C24.6733 20.3955 25.1059 19.3511 25.1059 18.2622C25.1059 17.1732 24.6733 16.1288 23.9033 15.3588C23.1333 14.5888 22.089 14.1562 21 14.1562C19.9111 14.1563 18.8667 14.5888 18.0967 15.3588C17.3267 16.1288 16.8941 17.1732 16.8941 18.2622C16.8941 19.3511 17.3267 20.3955 18.0967 21.1655C18.8667 21.9355 19.9111 22.3681 21 22.3681Z" fill="white"/>
</svg>
